<svg id="svg" version="1.1" xmlns="http://www.w3.org/2000/svg" xmlns:xlink="http://www.w3.org/1999/xlink" width="400" height="400" viewBox="0, 0, 400,400"><g id="svgg"><path id="path0" d="M47.578 46.468 C 45.041 46.955,43.161 48.538,41.775 51.352 L 40.517 53.907 40.566 200.274 C 40.604 310.527,40.728 346.982,41.071 348.027 C 41.885 350.509,43.300 352.294,45.410 353.504 L 47.461 354.680 199.822 354.684 L 352.183 354.687 354.300 353.418 C 356.816 351.909,358.403 349.572,358.978 346.529 C 359.705 342.678,359.510 55.676,358.779 53.213 C 358.060 50.792,356.144 48.177,354.291 47.089 L 352.930 46.289 200.977 46.240 C 117.402 46.213,48.373 46.316,47.578 46.468 M126.063 100.607 C 127.867 101.789,127.823 100.248,127.967 166.797 C 128.137 245.302,127.863 240.198,132.375 249.122 C 145.038 274.174,182.562 272.823,192.521 246.956 C 195.276 239.803,195.075 245.529,195.209 170.383 C 195.343 94.919,195.074 101.431,198.117 100.213 C 200.298 99.340,232.643 99.704,234.587 100.623 C 237.214 101.864,237.009 96.159,237.153 171.875 C 237.290 244.276,237.308 243.407,235.519 251.758 C 229.901 277.974,209.058 297.374,180.664 302.813 C 175.079 303.883,153.868 304.118,145.898 303.199 C 115.979 299.746,92.979 278.049,87.434 248.047 L 86.532 243.164 86.421 173.248 C 86.304 99.792,86.259 101.819,88.044 100.649 C 89.498 99.697,89.953 99.678,107.784 99.842 C 122.621 99.978,125.273 100.089,126.063 100.607 M310.092 100.670 C 310.664 101.095,311.350 101.865,311.615 102.381 C 311.994 103.119,312.099 124.197,312.104 200.723 L 312.109 298.125 310.819 299.415 C 309.037 301.197,308.002 301.279,289.393 301.105 C 272.279 300.945,272.454 300.968,271.074 298.706 C 270.328 297.482,270.315 295.816,270.314 200.128 L 270.313 102.794 271.321 101.595 C 272.875 99.749,273.647 99.681,291.928 99.793 C 308.288 99.893,309.097 99.932,310.092 100.670 " stroke="none" fill="#0f0f10" fill-rule="evenodd"></path><path id="path1" d="M0.000 200.000 L 0.000 400.000 200.000 400.000 L 400.000 400.000 400.000 200.000 L 400.000 0.000 200.000 0.000 L 0.000 0.000 0.000 200.000 M353.626 46.622 C 355.295 47.324,357.224 49.352,358.303 51.541 L 359.180 53.320 359.180 200.586 L 359.180 347.852 358.335 349.414 C 357.212 351.491,355.277 353.293,353.125 354.266 L 351.367 355.061 199.805 355.061 L 48.242 355.061 46.484 354.265 C 44.201 353.232,42.751 351.829,41.467 349.414 L 40.430 347.461 40.330 201.094 L 40.230 54.728 41.054 52.527 C 42.061 49.834,43.816 47.767,45.895 46.822 C 47.989 45.871,351.369 45.673,353.626 46.622 M87.799 101.140 L 86.523 102.280 86.523 171.159 C 86.523 244.687,86.484 243.036,88.459 251.953 C 94.238 278.053,115.678 298.170,142.383 302.550 C 157.368 305.008,178.815 303.978,189.905 300.267 C 217.853 290.915,234.279 270.558,236.752 242.208 C 237.588 232.625,237.058 103.506,236.177 102.161 C 234.765 100.006,234.372 99.967,215.228 100.086 L 197.673 100.195 196.591 101.278 L 195.508 102.361 195.311 170.810 L 195.113 239.258 194.254 242.279 C 189.653 258.454,178.630 266.979,162.305 266.988 C 147.348 266.997,136.539 259.873,130.879 246.275 C 127.759 238.782,127.986 244.378,127.750 169.206 L 127.539 102.279 126.263 101.140 L 124.988 100.000 107.031 100.000 L 89.075 100.000 87.799 101.140 M272.385 100.764 C 270.143 102.131,270.247 96.890,270.382 201.262 L 270.508 298.032 271.785 299.309 L 273.061 300.586 290.825 300.695 C 310.615 300.817,310.466 300.834,311.554 298.229 C 312.262 296.534,312.398 105.546,311.693 103.007 C 310.846 99.959,311.148 100.003,291.211 100.003 C 274.475 100.003,273.573 100.039,272.385 100.764 " stroke="none" fill="#ffffff" fill-rule="evenodd"></path><path id="path2" d="M40.411 70.117 C 40.411 78.066,40.463 81.263,40.527 77.221 C 40.590 73.178,40.590 66.674,40.527 62.767 C 40.463 58.861,40.411 62.168,40.411 70.117 M40.333 98.633 C 40.337 99.492,40.417 99.798,40.511 99.312 C 40.604 98.826,40.601 98.123,40.503 97.749 C 40.405 97.376,40.329 97.773,40.333 98.633 M94.238 99.901 C 96.548 99.970,100.327 99.970,102.637 99.901 C 104.946 99.832,103.057 99.775,98.438 99.775 C 93.818 99.775,91.929 99.832,94.238 99.901 M121.973 99.879 C 122.349 99.977,122.964 99.977,123.340 99.879 C 123.716 99.780,123.408 99.700,122.656 99.700 C 121.904 99.700,121.597 99.780,121.973 99.879 M202.637 99.900 C 204.624 99.971,207.876 99.971,209.863 99.900 C 211.851 99.830,210.225 99.772,206.250 99.772 C 202.275 99.772,200.649 99.830,202.637 99.900 M278.223 99.901 C 280.317 99.971,283.745 99.971,285.840 99.901 C 287.935 99.830,286.221 99.773,282.031 99.773 C 277.842 99.773,276.128 99.830,278.223 99.901 M302.246 99.895 C 303.159 99.978,304.653 99.978,305.566 99.895 C 306.479 99.813,305.732 99.746,303.906 99.746 C 302.080 99.746,301.333 99.813,302.246 99.895 M40.366 106.641 C 40.366 108.252,40.435 108.911,40.519 108.105 C 40.603 107.300,40.603 105.981,40.519 105.176 C 40.435 104.370,40.366 105.029,40.366 106.641 M40.355 113.086 C 40.358 114.375,40.431 114.855,40.517 114.153 C 40.604 113.451,40.603 112.396,40.513 111.809 C 40.424 111.222,40.353 111.797,40.355 113.086 M40.333 116.992 C 40.337 117.852,40.417 118.157,40.511 117.671 C 40.604 117.185,40.601 116.482,40.503 116.109 C 40.405 115.735,40.329 116.133,40.333 116.992 M40.363 121.289 C 40.364 122.793,40.435 123.360,40.519 122.550 C 40.604 121.739,40.603 120.509,40.516 119.816 C 40.430 119.122,40.361 119.785,40.363 121.289 M40.341 126.563 C 40.341 127.529,40.417 127.925,40.510 127.441 C 40.603 126.958,40.603 126.167,40.510 125.684 C 40.417 125.200,40.341 125.596,40.341 126.563 M40.409 140.820 C 40.409 147.695,40.462 150.453,40.527 146.948 C 40.592 143.443,40.591 137.818,40.526 134.448 C 40.462 131.078,40.408 133.945,40.409 140.820 M127.924 178.125 C 127.924 204.229,127.970 214.907,128.027 201.855 C 128.084 188.804,128.084 167.446,128.027 154.395 C 127.970 141.343,127.924 152.021,127.924 178.125 M40.355 157.227 C 40.358 158.516,40.431 158.996,40.517 158.294 C 40.604 157.592,40.603 156.537,40.513 155.950 C 40.424 155.363,40.353 155.938,40.355 157.227 M40.384 173.633 C 40.384 176.211,40.447 177.215,40.524 175.864 C 40.600 174.512,40.600 172.403,40.523 171.176 C 40.445 169.949,40.383 171.055,40.384 173.633 M40.351 182.813 C 40.351 183.994,40.425 184.478,40.514 183.887 C 40.604 183.296,40.604 182.329,40.514 181.738 C 40.425 181.147,40.351 181.631,40.351 182.813 M40.377 195.898 C 40.378 198.047,40.444 198.876,40.523 197.741 C 40.602 196.606,40.601 194.848,40.521 193.835 C 40.441 192.821,40.376 193.750,40.377 195.898 M40.423 242.188 C 40.423 265.283,40.470 274.731,40.527 263.184 C 40.585 251.636,40.585 232.739,40.527 221.191 C 40.470 209.644,40.423 219.092,40.423 242.188 M237.263 211.133 C 237.264 214.141,237.325 215.319,237.400 213.752 C 237.474 212.185,237.474 209.724,237.399 208.284 C 237.324 206.843,237.263 208.125,237.263 211.133 M237.208 234.961 C 237.212 235.820,237.292 236.126,237.386 235.640 C 237.479 235.154,237.476 234.451,237.378 234.077 C 237.280 233.704,237.204 234.102,237.208 234.961 M40.371 287.500 C 40.371 289.326,40.438 290.073,40.520 289.160 C 40.603 288.247,40.603 286.753,40.520 285.840 C 40.438 284.927,40.371 285.674,40.371 287.500 M40.399 301.563 C 40.399 305.967,40.456 307.769,40.526 305.566 C 40.595 303.364,40.595 299.761,40.526 297.559 C 40.456 295.356,40.399 297.158,40.399 301.563 M284.642 301.074 C 288.764 301.137,295.619 301.137,299.876 301.074 C 304.134 301.011,300.762 300.959,292.383 300.959 C 284.004 300.959,280.521 301.010,284.642 301.074 M40.414 328.516 C 40.414 338.076,40.465 341.987,40.527 337.207 C 40.589 332.427,40.589 324.604,40.527 319.824 C 40.465 315.044,40.414 318.955,40.414 328.516 M124.348 354.980 C 165.992 355.035,234.019 355.035,275.520 354.980 C 317.021 354.926,282.949 354.881,199.805 354.881 C 116.660 354.881,82.705 354.926,124.348 354.980 " stroke="none" fill="#747474" fill-rule="evenodd"></path><path id="path3" d="M237.234 218.750 C 237.234 220.146,237.305 220.718,237.392 220.020 C 237.479 219.321,237.479 218.179,237.392 217.480 C 237.305 216.782,237.234 217.354,237.234 218.750 M237.226 231.641 C 237.226 232.822,237.300 233.306,237.389 232.715 C 237.479 232.124,237.479 231.157,237.389 230.566 C 237.300 229.976,237.226 230.459,237.226 231.641 M105.859 284.180 C 106.588 284.932,107.272 285.547,107.380 285.547 C 107.487 285.547,106.979 284.932,106.250 284.180 C 105.521 283.428,104.837 282.813,104.730 282.813 C 104.622 282.813,105.131 283.428,105.859 284.180 " stroke="none" fill="#848482" fill-rule="evenodd"></path><path id="path4" d="M236.887 117.969 C 236.887 123.018,236.942 125.083,237.010 122.559 C 237.078 120.034,237.078 115.903,237.010 113.379 C 236.942 110.854,236.887 112.920,236.887 117.969 M237.243 226.758 C 237.245 228.477,237.313 229.131,237.396 228.212 C 237.478 227.294,237.477 225.887,237.393 225.087 C 237.309 224.287,237.242 225.039,237.243 226.758 M270.470 291.406 C 270.470 294.736,270.530 296.099,270.603 294.434 C 270.676 292.769,270.676 290.044,270.603 288.379 C 270.530 286.714,270.470 288.076,270.470 291.406 " stroke="none" fill="#9f9e9e" fill-rule="evenodd"></path></g></svg>